<svg width="151" height="342" viewBox="0 0 151 342" fill="none" xmlns="http://www.w3.org/2000/svg">
<g opacity="0.7">
<path opacity="0.7" d="M150.44 158.091C150.483 145.193 147.395 132.477 141.441 121.036C138.614 115.663 136.036 112.323 134.03 110.274C133.273 109.472 132.285 108.926 131.203 108.712C130.121 108.498 129 108.628 127.995 109.083C127.192 109.366 126.467 109.834 125.878 110.449C123.194 113.228 120.77 116.902 118.652 120.813C112.389 132.522 109.138 145.606 109.193 158.885V166.857H104.079V74.2195C104.079 54.8026 99.7329 35.6452 91.2208 18.637C87.1871 10.5854 83.5081 5.58302 80.6761 2.50746C79.9899 1.72561 79.1449 1.09918 78.1973 0.670034C77.2497 0.240883 76.2215 0.0188904 75.1813 0.0188904C74.1411 0.0188904 73.1129 0.240883 72.1653 0.670034C71.2177 1.09918 70.3727 1.72561 69.6866 2.50746C65.854 6.6735 62.3973 12.1788 59.3747 18.0335C50.4233 35.3911 45.8761 55.0885 45.8761 75.0823V166.857H41.456V158.504C41.5108 145.225 38.2599 132.141 31.9964 120.432C29.8789 116.526 27.4545 112.852 24.7706 110.068C23.9981 109.254 22.9871 108.707 21.8834 108.505C20.7797 108.303 19.6405 108.457 18.6301 108.945L18.8154 109.046C18.1672 109.332 17.5811 109.742 17.0897 110.253C15.1046 112.301 12.5266 115.642 9.67867 121.015C3.72505 132.456 0.636989 145.172 0.679604 158.07V296.571H16.4545L14.734 307.957V342H27.6292V307.957L25.9088 296.571H41.456V170.441H45.8761V296.004H58.4748L56.6644 307.952V342H69.5648V307.957L67.7544 296.009H84.7309L82.9205 307.957V342H95.8209V307.957L94.0106 296.009H104.068V170.441H109.182V296.761H113.327V296.571H127.032L125.311 307.957V342H138.212V307.957L136.491 296.571H150.44V158.091Z" fill="url(#paint0_linear)"/>
</g>
<path d="M30.1966 301.319H17.9843L20.1652 286.492H28.0156L30.1966 301.319Z" fill="#535461"/>
<g opacity="0.1">
<path opacity="0.1" d="M19.5565 292.378H28.6244L28.0156 288.233H20.1652L19.5565 292.378Z" fill="black"/>
</g>
<path d="M134.882 301.319H122.67L124.851 286.492H132.701L134.882 301.319Z" fill="#535461"/>
<g opacity="0.1">
<path opacity="0.1" d="M124.242 292.378H133.31L132.701 288.233H124.851L124.242 292.378Z" fill="black"/>
</g>
<path d="M69.893 301.319H57.6755L59.8564 286.492H67.7121L69.893 301.319Z" fill="#535461"/>
<g opacity="0.1">
<path opacity="0.1" d="M59.2477 292.378H68.3209L67.7121 288.233H59.8564L59.2477 292.378Z" fill="black"/>
</g>
<path d="M94.7516 301.319H82.5394L84.7203 286.492H92.5707L94.7516 301.319Z" fill="#535461"/>
<g opacity="0.1">
<path opacity="0.1" d="M84.1116 292.378H93.1847L92.5707 288.233H84.7203L84.1116 292.378Z" fill="black"/>
</g>
<path d="M117.435 163.919H30.1966V167.407H117.435V163.919Z" fill="#535461"/>
<path d="M130.923 108.797C130.462 108.288 129.899 107.881 129.271 107.603C128.644 107.325 127.965 107.181 127.278 107.181C126.591 107.181 125.912 107.325 125.285 107.603C124.657 107.881 124.094 108.288 123.633 108.797C121.092 111.502 118.8 115.081 116.794 118.887C110.857 130.332 107.786 143.048 107.843 155.942V290.234H146.449V155.386C146.497 142.845 143.575 130.472 137.921 119.278C135.242 114.048 132.802 110.793 130.923 108.797Z" fill="#E0E0E0"/>
<path d="M20.2182 108.797C20.6792 108.288 21.2416 107.881 21.8694 107.603C22.4971 107.325 23.1761 107.181 23.8628 107.181C24.5495 107.181 25.2285 107.325 25.8562 107.603C26.4839 107.881 27.0464 108.288 27.5074 108.797C30.0483 111.502 32.3405 115.081 34.3467 118.887C40.2836 130.332 43.3552 143.048 43.2981 155.942V290.234H4.68155V155.386C4.63303 142.845 7.55545 130.472 13.2095 119.278C15.8828 114.048 18.3231 110.793 20.2182 108.797Z" fill="#E0E0E0"/>
<path d="M4.89857 158.25L14.0565 158.292V169.588H4.89857V158.25Z" fill="#535461"/>
<path d="M34.1244 158.25L43.2823 158.292V169.588H34.1244V158.25Z" fill="#535461"/>
<path d="M107.837 158.25L117.001 158.292V169.588H107.837V158.25Z" fill="#535461"/>
<path d="M137.063 158.25L146.226 158.292V169.588H137.063V158.25Z" fill="#535461"/>
<g opacity="0.1">
<path opacity="0.1" d="M34.3308 118.712C32.3299 114.906 30.0325 111.327 27.4915 108.622C26.7735 107.829 25.8157 107.293 24.7644 107.095C23.713 106.897 22.6258 107.049 21.6686 107.527C22.2202 107.802 22.7185 108.173 23.1402 108.622C25.6811 111.327 27.9733 114.906 29.9795 118.712C35.9164 130.158 38.9881 142.873 38.931 155.767V290.049H43.2929V155.783C43.3493 142.883 40.2739 130.162 34.3308 118.712V118.712Z" fill="black"/>
</g>
<g opacity="0.1">
<path opacity="0.1" d="M120.267 119.082C122.268 115.276 124.565 111.698 127.106 108.993C127.582 108.481 128.156 108.07 128.795 107.786C127.851 107.373 126.801 107.267 125.794 107.484C124.787 107.7 123.874 108.228 123.183 108.993C120.643 111.698 118.35 115.276 116.344 119.082C110.407 130.528 107.336 143.244 107.393 156.137V290.419H111.321V156.159C111.258 143.258 114.328 130.535 120.267 119.082V119.082Z" fill="black"/>
</g>
<path d="M30.1966 301.319H17.9843V334.467H30.1966V301.319Z" fill="url(#paint1_linear)"/>
<path d="M69.7025 301.742H57.4902V334.891H69.7025V301.742Z" fill="url(#paint2_linear)"/>
<path d="M94.5823 301.213H82.37V334.361H94.5823V301.213Z" fill="url(#paint3_linear)"/>
<path d="M134.813 301.213H122.601V334.361H134.813V301.213Z" fill="url(#paint4_linear)"/>
<path d="M80.4061 3.50793C79.7681 2.74964 78.972 2.14003 78.0735 1.72182C77.1751 1.30361 76.1961 1.08691 75.2051 1.08691C74.2142 1.08691 73.2352 1.30361 72.3367 1.72182C71.4383 2.14003 70.6422 2.74964 70.0042 3.50793C66.3781 7.5628 63.1226 12.9252 60.2429 18.6317C51.7731 35.5393 47.4642 54.7285 47.4642 74.1877V289.684H102.565V73.3195C102.565 54.4109 98.4519 35.7352 90.3897 19.214C86.5731 11.3742 83.0899 6.50409 80.4061 3.50793Z" fill="#EEEEEE"/>
<path d="M83.1852 27.4455H66.0817C62.8658 27.4455 60.2588 30.0525 60.2588 33.2684V34.7982C60.2588 38.0141 62.8658 40.6212 66.0817 40.6212H83.1852C86.4011 40.6212 89.0081 38.0141 89.0081 34.7982V33.2684C89.0081 30.0525 86.4011 27.4455 83.1852 27.4455Z" fill="#80C5FD"/>
<g opacity="0.1">
<path opacity="0.1" d="M102.269 81.5563H47.7447V83.6737H102.269V81.5563Z" fill="black"/>
</g>
<defs>
<linearGradient id="paint0_linear" x1="75.5624" y1="342" x2="75.5624" y2="0.0353596" gradientUnits="userSpaceOnUse">
<stop stop-color="#808080" stop-opacity="0.25"/>
<stop offset="0.54" stop-color="#808080" stop-opacity="0.12"/>
<stop offset="1" stop-color="#808080" stop-opacity="0.1"/>
</linearGradient>
<linearGradient id="paint1_linear" x1="24.0878" y1="301.319" x2="24.0878" y2="334.473" gradientUnits="userSpaceOnUse">
<stop stop-color="#E0E0E0"/>
<stop offset="0.31" stop-color="#FCCC63"/>
<stop offset="0.77" stop-color="#F55F44"/>
</linearGradient>
<linearGradient id="paint2_linear" x1="63.5937" y1="301.742" x2="63.5937" y2="334.896" gradientUnits="userSpaceOnUse">
<stop stop-color="#E0E0E0"/>
<stop offset="0.31" stop-color="#FCCC63"/>
<stop offset="0.77" stop-color="#F55F44"/>
</linearGradient>
<linearGradient id="paint3_linear" x1="88.4735" y1="301.213" x2="88.4735" y2="334.367" gradientUnits="userSpaceOnUse">
<stop stop-color="#E0E0E0"/>
<stop offset="0.31" stop-color="#FCCC63"/>
<stop offset="0.77" stop-color="#F55F44"/>
</linearGradient>
<linearGradient id="paint4_linear" x1="128.705" y1="301.213" x2="128.705" y2="334.367" gradientUnits="userSpaceOnUse">
<stop stop-color="#E0E0E0"/>
<stop offset="0.31" stop-color="#FCCC63"/>
<stop offset="0.77" stop-color="#F55F44"/>
</linearGradient>
</defs>
</svg>
