<svg id="Layer_1" data-name="Layer 1" xmlns="http://www.w3.org/2000/svg" viewBox="0 0 1475 3536"><defs><style>.cls-1{fill:red;}.cls-2{fill:none;stroke:#000;stroke-linecap:round;stroke-miterlimit:10;stroke-width:62px;}</style></defs><path class="cls-1" d="M2769.08,2689.12c0-2.16.08-4.31.08-6.48V2556h-648v126.64c0,2.17,0,4.32.09,6.48-227.24,117.44-382.59,354.59-382.59,628,0,390.19,316.31,706.5,706.5,706.5s706.5-316.31,706.5-706.5C3151.66,3043.71,2996.32,2806.56,2769.08,2689.12Z" transform="translate(-1707.66 -518)"/><path class="cls-2" d="M2769.08,2688.48c0-2.16.08-4.31.08-6.48V873c0-178.94-145.06-324-324-324h0c-178.94,0-324,145.06-324,324V2682c0,2.17,0,4.32.09,6.48-227.24,117.44-382.59,354.59-382.59,628,0,390.19,316.31,706.5,706.5,706.5s706.5-316.31,706.5-706.5C3151.66,3043.07,2996.32,2805.92,2769.08,2688.48Z" transform="translate(-1707.66 -518)"/><line class="cls-2" x1="737.5" y1="328" x2="737.5" y2="2470"/><line class="cls-2" x1="739.48" y1="959.79" x2="920.34" y2="959.79"/><line class="cls-2" x1="739.48" y1="706" x2="920.34" y2="706"/><line class="cls-2" x1="739.48" y1="1467.37" x2="920.34" y2="1467.37"/><line class="cls-2" x1="739.48" y1="1213.58" x2="920.34" y2="1213.58"/><line class="cls-2" x1="739.48" y1="1974.94" x2="920.34" y2="1974.94"/><line class="cls-2" x1="739.48" y1="1721.15" x2="920.34" y2="1721.15"/></svg>